<svg xmlns="http://www.w3.org/2000/svg" width="1920" height="800"><path d="M941,324L1025,293L936,194Z" fill="rgb(133,138,241)" stroke="rgb(133,138,241)" stroke-width="1.51"/><path d="M1025,293L1053,206L936,194Z" fill="rgb(135,135,235)" stroke="rgb(135,135,235)" stroke-width="1.51"/><path d="M1024,81L920,80L936,194Z" fill="rgb(136,124,224)" stroke="rgb(136,124,224)" stroke-width="1.51"/><path d="M1176,308L1109,187L1053,206Z" fill="rgb(136,139,233)" stroke="rgb(136,139,233)" stroke-width="1.51"/><path d="M936,194L805,364L941,324Z" fill="rgb(133,137,240)" stroke="rgb(133,137,240)" stroke-width="1.51"/><path d="M1024,81L936,194L1053,206Z" fill="rgb(136,129,228)" stroke="rgb(136,129,228)" stroke-width="1.51"/><path d="M1109,187L1024,81L1053,206Z" fill="rgb(137,130,226)" stroke="rgb(137,130,226)" stroke-width="1.51"/><path d="M748,172L805,364L936,194Z" fill="rgb(135,130,232)" stroke="rgb(135,130,232)" stroke-width="1.51"/><path d="M941,324L983,473L1025,293Z" fill="rgb(130,146,250)" stroke="rgb(130,146,250)" stroke-width="1.51"/><path d="M1025,293L1176,308L1053,206Z" fill="rgb(135,141,237)" stroke="rgb(135,141,237)" stroke-width="1.51"/><path d="M867,466L983,473L941,324Z" fill="rgb(130,150,252)" stroke="rgb(130,150,252)" stroke-width="1.51"/><path d="M1190,446L1176,308L1025,293Z" fill="rgb(133,150,245)" stroke="rgb(133,150,245)" stroke-width="1.51"/><path d="M805,364L867,466L941,324Z" fill="rgb(130,144,249)" stroke="rgb(130,144,249)" stroke-width="1.51"/><path d="M920,80L748,172L936,194Z" fill="rgb(137,123,224)" stroke="rgb(137,123,224)" stroke-width="1.51"/><path d="M920,80L742,102L748,172Z" fill="rgb(138,118,217)" stroke="rgb(138,118,217)" stroke-width="1.51"/><path d="M920,80L879,-16L742,102Z" fill="rgb(138,114,213)" stroke="rgb(138,114,213)" stroke-width="1.51"/><path d="M1024,81L879,-16L920,80Z" fill="rgb(138,116,216)" stroke="rgb(138,116,216)" stroke-width="1.51"/><path d="M1176,308L1251,208L1109,187Z" fill="rgb(137,141,231)" stroke="rgb(137,141,231)" stroke-width="1.51"/><path d="M1109,187L1189,34L1024,81Z" fill="rgb(139,126,219)" stroke="rgb(139,126,219)" stroke-width="1.51"/><path d="M1024,81L1035,-83L879,-16Z" fill="rgb(139,113,211)" stroke="rgb(139,113,211)" stroke-width="1.51"/><path d="M983,473L1190,446L1025,293Z" fill="rgb(130,153,253)" stroke="rgb(130,153,253)" stroke-width="1.51"/><path d="M1176,308L1271,328L1251,208Z" fill="rgb(137,147,235)" stroke="rgb(137,147,235)" stroke-width="1.51"/><path d="M867,466L882,613L983,473Z" fill="rgb(134,155,245)" stroke="rgb(134,155,245)" stroke-width="1.51"/><path d="M1153,580L1269,443L1190,446Z" fill="rgb(136,162,243)" stroke="rgb(136,162,243)" stroke-width="1.51"/><path d="M805,364L811,509L867,466Z" fill="rgb(132,147,246)" stroke="rgb(132,147,246)" stroke-width="1.51"/><path d="M625,373L811,509L805,364Z" fill="rgb(132,142,244)" stroke="rgb(132,142,244)" stroke-width="1.51"/><path d="M748,172L669,229L805,364Z" fill="rgb(136,128,229)" stroke="rgb(136,128,229)" stroke-width="1.51"/><path d="M742,102L669,229L748,172Z" fill="rgb(137,119,219)" stroke="rgb(137,119,219)" stroke-width="1.51"/><path d="M1190,446L1271,328L1176,308Z" fill="rgb(134,153,244)" stroke="rgb(134,153,244)" stroke-width="1.51"/><path d="M1236,88L1189,34L1109,187Z" fill="rgb(140,129,217)" stroke="rgb(140,129,217)" stroke-width="1.51"/><path d="M1404,101L1236,88L1251,208Z" fill="rgb(141,134,217)" stroke="rgb(141,134,217)" stroke-width="1.51"/><path d="M1251,208L1236,88L1109,187Z" fill="rgb(139,135,223)" stroke="rgb(139,135,223)" stroke-width="1.51"/><path d="M1189,34L1035,-83L1024,81Z" fill="rgb(140,117,210)" stroke="rgb(140,117,210)" stroke-width="1.51"/><path d="M1190,446L1269,443L1271,328Z" fill="rgb(133,158,247)" stroke="rgb(133,158,247)" stroke-width="1.51"/><path d="M1153,580L1190,446L983,473Z" fill="rgb(135,161,245)" stroke="rgb(135,161,245)" stroke-width="1.51"/><path d="M669,229L625,373L805,364Z" fill="rgb(134,132,234)" stroke="rgb(134,132,234)" stroke-width="1.51"/><path d="M811,509L882,613L867,466Z" fill="rgb(135,154,242)" stroke="rgb(135,154,242)" stroke-width="1.51"/><path d="M770,616L882,613L811,509Z" fill="rgb(137,157,238)" stroke="rgb(137,157,238)" stroke-width="1.51"/><path d="M1056,641L1153,580L983,473Z" fill="rgb(136,164,242)" stroke="rgb(136,164,242)" stroke-width="1.51"/><path d="M1303,-84L1155,-83L1189,34Z" fill="rgb(142,121,205)" stroke="rgb(142,121,205)" stroke-width="1.51"/><path d="M1189,34L1155,-83L1035,-83Z" fill="rgb(141,118,207)" stroke="rgb(141,118,207)" stroke-width="1.51"/><path d="M882,613L1056,641L983,473Z" fill="rgb(135,162,244)" stroke="rgb(135,162,244)" stroke-width="1.51"/><path d="M882,613L998,705L1056,641Z" fill="rgb(138,167,239)" stroke="rgb(138,167,239)" stroke-width="1.51"/><path d="M615,558L770,616L811,509Z" fill="rgb(138,152,235)" stroke="rgb(138,152,235)" stroke-width="1.51"/><path d="M1121,-152L1046,-142L1035,-83Z" fill="rgb(140,116,209)" stroke="rgb(140,116,209)" stroke-width="1.51"/><path d="M1035,-83L868,-220L879,-16Z" fill="rgb(139,112,210)" stroke="rgb(139,112,210)" stroke-width="1.51"/><path d="M742,102L587,98L669,229Z" fill="rgb(139,115,214)" stroke="rgb(139,115,214)" stroke-width="1.51"/><path d="M669,229L531,315L625,373Z" fill="rgb(136,128,228)" stroke="rgb(136,128,228)" stroke-width="1.51"/><path d="M647,-50L587,98L742,102Z" fill="rgb(139,106,204)" stroke="rgb(139,106,204)" stroke-width="1.51"/><path d="M736,-88L742,102L879,-16Z" fill="rgb(139,106,204)" stroke="rgb(139,106,204)" stroke-width="1.51"/><path d="M625,373L602,453L811,509Z" fill="rgb(134,142,239)" stroke="rgb(134,142,239)" stroke-width="1.51"/><path d="M531,315L602,453L625,373Z" fill="rgb(134,133,236)" stroke="rgb(134,133,236)" stroke-width="1.51"/><path d="M868,-220L736,-88L879,-16Z" fill="rgb(139,108,206)" stroke="rgb(139,108,206)" stroke-width="1.51"/><path d="M495,199L531,315L669,229Z" fill="rgb(137,120,220)" stroke="rgb(137,120,220)" stroke-width="1.51"/><path d="M1155,-83L1121,-152L1035,-83Z" fill="rgb(141,117,208)" stroke="rgb(141,117,208)" stroke-width="1.51"/><path d="M736,-88L647,-50L742,102Z" fill="rgb(140,103,201)" stroke="rgb(140,103,201)" stroke-width="1.51"/><path d="M934,759L998,705L882,613Z" fill="rgb(139,168,236)" stroke="rgb(139,168,236)" stroke-width="1.51"/><path d="M1056,641L1166,707L1153,580Z" fill="rgb(139,171,236)" stroke="rgb(139,171,236)" stroke-width="1.51"/><path d="M1271,328L1406,342L1251,208Z" fill="rgb(138,150,235)" stroke="rgb(138,150,235)" stroke-width="1.51"/><path d="M1236,88L1303,-84L1189,34Z" fill="rgb(142,123,206)" stroke="rgb(142,123,206)" stroke-width="1.51"/><path d="M1155,-83L1311,-179L1121,-152Z" fill="rgb(142,120,206)" stroke="rgb(142,120,206)" stroke-width="1.51"/><path d="M1269,443L1406,342L1271,328Z" fill="rgb(135,157,243)" stroke="rgb(135,157,243)" stroke-width="1.51"/><path d="M1406,455L1406,342L1269,443Z" fill="rgb(135,162,244)" stroke="rgb(135,162,244)" stroke-width="1.51"/><path d="M647,-50L548,84L587,98Z" fill="rgb(140,103,200)" stroke="rgb(140,103,200)" stroke-width="1.51"/><path d="M587,98L495,199L669,229Z" fill="rgb(138,115,213)" stroke="rgb(138,115,213)" stroke-width="1.51"/><path d="M602,453L615,558L811,509Z" fill="rgb(137,146,236)" stroke="rgb(137,146,236)" stroke-width="1.51"/><path d="M726,761L934,759L882,613Z" fill="rgb(141,167,231)" stroke="rgb(141,167,231)" stroke-width="1.51"/><path d="M537,479L615,558L602,453Z" fill="rgb(137,142,232)" stroke="rgb(137,142,232)" stroke-width="1.51"/><path d="M1453,229L1404,101L1251,208Z" fill="rgb(141,141,221)" stroke="rgb(141,141,221)" stroke-width="1.51"/><path d="M548,84L495,199L587,98Z" fill="rgb(139,109,206)" stroke="rgb(139,109,206)" stroke-width="1.51"/><path d="M509,551L537,479L409,421Z" fill="rgb(138,137,228)" stroke="rgb(138,137,228)" stroke-width="1.51"/><path d="M531,315L537,479L602,453Z" fill="rgb(134,135,235)" stroke="rgb(134,135,235)" stroke-width="1.51"/><path d="M1404,101L1303,-84L1236,88Z" fill="rgb(143,126,207)" stroke="rgb(143,126,207)" stroke-width="1.51"/><path d="M1382,619L1406,455L1269,443Z" fill="rgb(138,168,239)" stroke="rgb(138,168,239)" stroke-width="1.51"/><path d="M1305,632L1269,443L1153,580Z" fill="rgb(138,168,238)" stroke="rgb(138,168,238)" stroke-width="1.51"/><path d="M736,-88L593,-142L647,-50Z" fill="rgb(140,101,199)" stroke="rgb(140,101,199)" stroke-width="1.51"/><path d="M1046,-142L868,-220L1035,-83Z" fill="rgb(139,113,211)" stroke="rgb(139,113,211)" stroke-width="1.51"/><path d="M1121,-152L868,-220L1046,-142Z" fill="rgb(139,114,210)" stroke="rgb(139,114,210)" stroke-width="1.51"/><path d="M1497,182L1453,229L1542,336Z" fill="rgb(141,151,225)" stroke="rgb(141,151,225)" stroke-width="1.51"/><path d="M1406,342L1453,229L1251,208Z" fill="rgb(139,149,229)" stroke="rgb(139,149,229)" stroke-width="1.51"/><path d="M998,705L1166,707L1056,641Z" fill="rgb(140,172,234)" stroke="rgb(140,172,234)" stroke-width="1.51"/><path d="M998,705L1010,806L1166,707Z" fill="rgb(141,176,231)" stroke="rgb(141,176,231)" stroke-width="1.51"/><path d="M726,761L882,613L770,616Z" fill="rgb(140,161,231)" stroke="rgb(140,161,231)" stroke-width="1.51"/><path d="M1166,707L1305,632L1153,580Z" fill="rgb(140,173,234)" stroke="rgb(140,173,234)" stroke-width="1.51"/><path d="M868,-220L774,-234L736,-88Z" fill="rgb(139,106,204)" stroke="rgb(139,106,204)" stroke-width="1.51"/><path d="M647,-50L496,-45L548,84Z" fill="rgb(140,97,194)" stroke="rgb(140,97,194)" stroke-width="1.51"/><path d="M1453,229L1497,182L1404,101Z" fill="rgb(142,142,217)" stroke="rgb(142,142,217)" stroke-width="1.51"/><path d="M1433,-174L1311,-179L1303,-84Z" fill="rgb(144,124,202)" stroke="rgb(144,124,202)" stroke-width="1.51"/><path d="M1542,336L1453,229L1406,342Z" fill="rgb(139,155,232)" stroke="rgb(139,155,232)" stroke-width="1.51"/><path d="M615,558L683,729L770,616Z" fill="rgb(140,155,228)" stroke="rgb(140,155,228)" stroke-width="1.51"/><path d="M537,479L509,551L615,558Z" fill="rgb(139,143,229)" stroke="rgb(139,143,229)" stroke-width="1.51"/><path d="M409,421L537,479L531,315Z" fill="rgb(134,132,233)" stroke="rgb(134,132,233)" stroke-width="1.51"/><path d="M364,89L353,236L495,199Z" fill="rgb(139,108,205)" stroke="rgb(139,108,205)" stroke-width="1.51"/><path d="M774,-234L593,-142L736,-88Z" fill="rgb(140,103,200)" stroke="rgb(140,103,200)" stroke-width="1.51"/><path d="M513,767L683,729L615,558Z" fill="rgb(143,155,221)" stroke="rgb(143,155,221)" stroke-width="1.51"/><path d="M934,759L1010,806L998,705Z" fill="rgb(141,174,232)" stroke="rgb(141,174,232)" stroke-width="1.51"/><path d="M1315,700L1382,619L1305,632Z" fill="rgb(142,177,230)" stroke="rgb(142,177,230)" stroke-width="1.51"/><path d="M878,870L1010,806L934,759Z" fill="rgb(142,176,229)" stroke="rgb(142,176,229)" stroke-width="1.51"/><path d="M1406,455L1542,336L1406,342Z" fill="rgb(137,161,240)" stroke="rgb(137,161,240)" stroke-width="1.51"/><path d="M1305,632L1382,619L1269,443Z" fill="rgb(140,171,235)" stroke="rgb(140,171,235)" stroke-width="1.51"/><path d="M1315,700L1305,632L1166,707Z" fill="rgb(142,177,230)" stroke="rgb(142,177,230)" stroke-width="1.51"/><path d="M683,729L726,761L770,616Z" fill="rgb(142,161,226)" stroke="rgb(142,161,226)" stroke-width="1.51"/><path d="M1303,-84L1311,-179L1155,-83Z" fill="rgb(143,122,204)" stroke="rgb(143,122,204)" stroke-width="1.51"/><path d="M1121,-152L1311,-179L868,-220Z" fill="rgb(141,117,208)" stroke="rgb(141,117,208)" stroke-width="1.51"/><path d="M868,-220L1789,-203L774,-234Z" fill="rgb(141,119,207)" stroke="rgb(141,119,207)" stroke-width="1.51"/><path d="M1463,-98L1303,-84L1404,101Z" fill="rgb(144,126,201)" stroke="rgb(144,126,201)" stroke-width="1.51"/><path d="M593,-142L496,-45L647,-50Z" fill="rgb(140,98,195)" stroke="rgb(140,98,195)" stroke-width="1.51"/><path d="M1301,831L1315,700L1166,707Z" fill="rgb(143,182,225)" stroke="rgb(143,182,225)" stroke-width="1.51"/><path d="M386,330L409,421L531,315Z" fill="rgb(136,126,226)" stroke="rgb(136,126,226)" stroke-width="1.51"/><path d="M386,330L531,315L495,199Z" fill="rgb(138,120,220)" stroke="rgb(138,120,220)" stroke-width="1.51"/><path d="M353,236L386,330L495,199Z" fill="rgb(138,116,214)" stroke="rgb(138,116,214)" stroke-width="1.51"/><path d="M1577,496L1542,336L1406,455Z" fill="rgb(138,167,239)" stroke="rgb(138,167,239)" stroke-width="1.51"/><path d="M1497,182L1546,99L1404,101Z" fill="rgb(143,140,212)" stroke="rgb(143,140,212)" stroke-width="1.51"/><path d="M1651,205L1546,99L1497,182Z" fill="rgb(144,145,214)" stroke="rgb(144,145,214)" stroke-width="1.51"/><path d="M600,863L748,822L726,761Z" fill="rgb(145,167,218)" stroke="rgb(145,167,218)" stroke-width="1.51"/><path d="M726,761L748,822L934,759Z" fill="rgb(143,169,225)" stroke="rgb(143,169,225)" stroke-width="1.51"/><path d="M600,863L726,761L683,729Z" fill="rgb(145,165,218)" stroke="rgb(145,165,218)" stroke-width="1.51"/><path d="M774,-234L539,-177L593,-142Z" fill="rgb(140,101,198)" stroke="rgb(140,101,198)" stroke-width="1.51"/><path d="M593,-142L539,-177L496,-45Z" fill="rgb(140,97,193)" stroke="rgb(140,97,193)" stroke-width="1.51"/><path d="M364,89L548,84L496,-45Z" fill="rgb(140,98,195)" stroke="rgb(140,98,195)" stroke-width="1.51"/><path d="M364,89L495,199L548,84Z" fill="rgb(140,106,203)" stroke="rgb(140,106,203)" stroke-width="1.51"/><path d="M386,330L257,464L409,421Z" fill="rgb(136,127,227)" stroke="rgb(136,127,227)" stroke-width="1.51"/><path d="M1548,-58L1463,-98L1404,101Z" fill="rgb(145,128,199)" stroke="rgb(145,128,199)" stroke-width="1.51"/><path d="M1010,806L1143,868L1166,707Z" fill="rgb(143,180,226)" stroke="rgb(143,180,226)" stroke-width="1.51"/><path d="M748,822L878,870L934,759Z" fill="rgb(143,173,225)" stroke="rgb(143,173,225)" stroke-width="1.51"/><path d="M396,-92L364,89L496,-45Z" fill="rgb(140,92,188)" stroke="rgb(140,92,188)" stroke-width="1.51"/><path d="M1150,973L1143,868L1059,1021Z" fill="rgb(143,181,226)" stroke="rgb(143,181,226)" stroke-width="1.51"/><path d="M1463,-98L1433,-174L1303,-84Z" fill="rgb(144,126,201)" stroke="rgb(144,126,201)" stroke-width="1.51"/><path d="M1311,-179L1789,-203L868,-220Z" fill="rgb(143,124,203)" stroke="rgb(143,124,203)" stroke-width="1.51"/><path d="M1582,-139L1433,-174L1463,-98Z" fill="rgb(146,129,198)" stroke="rgb(146,129,198)" stroke-width="1.51"/><path d="M1382,619L1510,597L1406,455Z" fill="rgb(141,173,233)" stroke="rgb(141,173,233)" stroke-width="1.51"/><path d="M1441,728L1510,597L1382,619Z" fill="rgb(143,180,227)" stroke="rgb(143,180,227)" stroke-width="1.51"/><path d="M1441,728L1382,619L1315,700Z" fill="rgb(143,181,226)" stroke="rgb(143,181,226)" stroke-width="1.51"/><path d="M1542,336L1637,296L1497,182Z" fill="rgb(142,155,226)" stroke="rgb(142,155,226)" stroke-width="1.51"/><path d="M1510,597L1577,496L1406,455Z" fill="rgb(140,173,234)" stroke="rgb(140,173,234)" stroke-width="1.51"/><path d="M1627,44L1548,-58L1546,99Z" fill="rgb(146,134,199)" stroke="rgb(146,134,199)" stroke-width="1.51"/><path d="M1546,99L1548,-58L1404,101Z" fill="rgb(145,133,203)" stroke="rgb(145,133,203)" stroke-width="1.51"/><path d="M1143,868L1301,831L1166,707Z" fill="rgb(144,184,223)" stroke="rgb(144,184,223)" stroke-width="1.51"/><path d="M539,-177L396,-92L496,-45Z" fill="rgb(140,94,190)" stroke="rgb(140,94,190)" stroke-width="1.51"/><path d="M1673,639L1658,469L1577,496Z" fill="rgb(142,178,229)" stroke="rgb(142,178,229)" stroke-width="1.51"/><path d="M1373,814L1441,728L1315,700Z" fill="rgb(144,185,222)" stroke="rgb(144,185,222)" stroke-width="1.51"/><path d="M1658,469L1637,296L1542,336Z" fill="rgb(139,165,235)" stroke="rgb(139,165,235)" stroke-width="1.51"/><path d="M509,551L513,767L615,558Z" fill="rgb(142,149,223)" stroke="rgb(142,149,223)" stroke-width="1.51"/><path d="M748,822L854,968L878,870Z" fill="rgb(143,172,224)" stroke="rgb(143,172,224)" stroke-width="1.51"/><path d="M346,583L513,767L509,551Z" fill="rgb(143,146,218)" stroke="rgb(143,146,218)" stroke-width="1.51"/><path d="M346,583L509,551L409,421Z" fill="rgb(139,137,223)" stroke="rgb(139,137,223)" stroke-width="1.51"/><path d="M1637,296L1651,205L1497,182Z" fill="rgb(143,152,220)" stroke="rgb(143,152,220)" stroke-width="1.51"/><path d="M1301,831L1373,814L1315,700Z" fill="rgb(144,186,221)" stroke="rgb(144,186,221)" stroke-width="1.51"/><path d="M353,236L274,302L386,330Z" fill="rgb(138,116,215)" stroke="rgb(138,116,215)" stroke-width="1.51"/><path d="M241,228L274,302L353,236Z" fill="rgb(139,111,209)" stroke="rgb(139,111,209)" stroke-width="1.51"/><path d="M241,228L353,236L364,89Z" fill="rgb(140,105,203)" stroke="rgb(140,105,203)" stroke-width="1.51"/><path d="M1651,205L1627,44L1546,99Z" fill="rgb(145,142,208)" stroke="rgb(145,142,208)" stroke-width="1.51"/><path d="M257,464L346,583L409,421Z" fill="rgb(139,132,221)" stroke="rgb(139,132,221)" stroke-width="1.51"/><path d="M396,-92L289,66L364,89Z" fill="rgb(140,91,187)" stroke="rgb(140,91,187)" stroke-width="1.51"/><path d="M478,812L600,863L513,767Z" fill="rgb(146,161,211)" stroke="rgb(146,161,211)" stroke-width="1.51"/><path d="M513,767L600,863L683,729Z" fill="rgb(145,162,215)" stroke="rgb(145,162,215)" stroke-width="1.51"/><path d="M878,870L1059,1021L1010,806Z" fill="rgb(142,177,229)" stroke="rgb(142,177,229)" stroke-width="1.51"/><path d="M1143,868L1300,944L1301,831Z" fill="rgb(144,185,222)" stroke="rgb(144,185,222)" stroke-width="1.51"/><path d="M1301,831L1300,944L1373,814Z" fill="rgb(144,187,220)" stroke="rgb(144,187,220)" stroke-width="1.51"/><path d="M729,997L854,968L748,822Z" fill="rgb(144,170,222)" stroke="rgb(144,170,222)" stroke-width="1.51"/><path d="M289,66L241,228L364,89Z" fill="rgb(140,99,196)" stroke="rgb(140,99,196)" stroke-width="1.51"/><path d="M274,302L257,464L386,330Z" fill="rgb(137,121,221)" stroke="rgb(137,121,221)" stroke-width="1.51"/><path d="M1637,296L1772,349L1651,205Z" fill="rgb(142,160,224)" stroke="rgb(142,160,224)" stroke-width="1.51"/><path d="M1577,496L1658,469L1542,336Z" fill="rgb(139,170,237)" stroke="rgb(139,170,237)" stroke-width="1.51"/><path d="M1673,639L1577,496L1510,597Z" fill="rgb(143,179,228)" stroke="rgb(143,179,228)" stroke-width="1.51"/><path d="M1524,758L1510,597L1441,728Z" fill="rgb(144,185,223)" stroke="rgb(144,185,223)" stroke-width="1.51"/><path d="M1548,-58L1582,-139L1463,-98Z" fill="rgb(146,130,197)" stroke="rgb(146,130,197)" stroke-width="1.51"/><path d="M1637,-141L1582,-139L1672,-104Z" fill="rgb(147,133,195)" stroke="rgb(147,133,195)" stroke-width="1.51"/><path d="M139,354L257,464L274,302Z" fill="rgb(137,119,219)" stroke="rgb(137,119,219)" stroke-width="1.51"/><path d="M348,741L478,812L513,767Z" fill="rgb(147,156,209)" stroke="rgb(147,156,209)" stroke-width="1.51"/><path d="M348,741L513,767L346,583Z" fill="rgb(145,149,212)" stroke="rgb(145,149,212)" stroke-width="1.51"/><path d="M1059,1021L1143,868L1010,806Z" fill="rgb(143,180,227)" stroke="rgb(143,180,227)" stroke-width="1.51"/><path d="M396,-92L241,-83L289,66Z" fill="rgb(140,88,183)" stroke="rgb(140,88,183)" stroke-width="1.51"/><path d="M539,-177L408,-228L396,-92Z" fill="rgb(140,93,189)" stroke="rgb(140,93,189)" stroke-width="1.51"/><path d="M774,-234L408,-228L539,-177Z" fill="rgb(140,98,195)" stroke="rgb(140,98,195)" stroke-width="1.51"/><path d="M1556,896L1524,758L1373,814Z" fill="rgb(145,192,216)" stroke="rgb(145,192,216)" stroke-width="1.51"/><path d="M1373,814L1524,758L1441,728Z" fill="rgb(145,188,219)" stroke="rgb(145,188,219)" stroke-width="1.51"/><path d="M1150,973L1300,944L1143,868Z" fill="rgb(144,184,224)" stroke="rgb(144,184,224)" stroke-width="1.51"/><path d="M854,968L1059,1021L878,870Z" fill="rgb(142,176,228)" stroke="rgb(142,176,228)" stroke-width="1.51"/><path d="M1150,973L1399,954L1300,944Z" fill="rgb(144,186,221)" stroke="rgb(144,186,221)" stroke-width="1.51"/><path d="M600,863L729,997L748,822Z" fill="rgb(145,167,218)" stroke="rgb(145,167,218)" stroke-width="1.51"/><path d="M854,968L679,1030L1059,1021Z" fill="rgb(143,173,226)" stroke="rgb(143,173,226)" stroke-width="1.51"/><path d="M679,1030L729,997L600,863Z" fill="rgb(145,166,217)" stroke="rgb(145,166,217)" stroke-width="1.51"/><path d="M1582,-139L1789,-203L1433,-174Z" fill="rgb(146,132,195)" stroke="rgb(146,132,195)" stroke-width="1.51"/><path d="M1672,-104L1582,-139L1548,-58Z" fill="rgb(146,132,195)" stroke="rgb(146,132,195)" stroke-width="1.51"/><path d="M1672,-104L1548,-58L1627,44Z" fill="rgb(146,133,195)" stroke="rgb(146,133,195)" stroke-width="1.51"/><path d="M514,1020L679,1030L600,863Z" fill="rgb(146,163,214)" stroke="rgb(146,163,214)" stroke-width="1.51"/><path d="M251,712L348,741L346,583Z" fill="rgb(145,144,209)" stroke="rgb(145,144,209)" stroke-width="1.51"/><path d="M1757,36L1627,44L1651,205Z" fill="rgb(146,142,204)" stroke="rgb(146,142,204)" stroke-width="1.51"/><path d="M1757,36L1672,-104L1627,44Z" fill="rgb(147,135,194)" stroke="rgb(147,135,194)" stroke-width="1.51"/><path d="M124,460L229,570L257,464Z" fill="rgb(141,128,215)" stroke="rgb(141,128,215)" stroke-width="1.51"/><path d="M257,464L229,570L346,583Z" fill="rgb(141,133,216)" stroke="rgb(141,133,216)" stroke-width="1.51"/><path d="M207,-168L241,-83L396,-92Z" fill="rgb(140,86,182)" stroke="rgb(140,86,182)" stroke-width="1.51"/><path d="M289,66L154,121L241,228Z" fill="rgb(140,97,194)" stroke="rgb(140,97,194)" stroke-width="1.51"/><path d="M241,228L139,354L274,302Z" fill="rgb(139,112,210)" stroke="rgb(139,112,210)" stroke-width="1.51"/><path d="M1524,758L1673,639L1510,597Z" fill="rgb(144,185,223)" stroke="rgb(144,185,223)" stroke-width="1.51"/><path d="M1658,469L1772,349L1637,296Z" fill="rgb(140,168,233)" stroke="rgb(140,168,233)" stroke-width="1.51"/><path d="M1703,763L1673,639L1524,758Z" fill="rgb(146,191,218)" stroke="rgb(146,191,218)" stroke-width="1.51"/><path d="M1849,508L1772,349L1658,469Z" fill="rgb(141,175,232)" stroke="rgb(141,175,232)" stroke-width="1.51"/><path d="M1300,944L1399,954L1373,814Z" fill="rgb(145,188,219)" stroke="rgb(145,188,219)" stroke-width="1.51"/><path d="M1059,1021L1399,954L1150,973Z" fill="rgb(144,184,223)" stroke="rgb(144,184,223)" stroke-width="1.51"/><path d="M241,-83L154,121L289,66Z" fill="rgb(140,88,183)" stroke="rgb(140,88,183)" stroke-width="1.51"/><path d="M729,997L679,1030L854,968Z" fill="rgb(144,169,221)" stroke="rgb(144,169,221)" stroke-width="1.51"/><path d="M514,1020L600,863L478,812Z" fill="rgb(146,161,211)" stroke="rgb(146,161,211)" stroke-width="1.51"/><path d="M1824,214L1757,36L1651,205Z" fill="rgb(146,150,208)" stroke="rgb(146,150,208)" stroke-width="1.51"/><path d="M125,227L139,354L241,228Z" fill="rgb(139,107,205)" stroke="rgb(139,107,205)" stroke-width="1.51"/><path d="M154,121L125,227L241,228Z" fill="rgb(140,100,197)" stroke="rgb(140,100,197)" stroke-width="1.51"/><path d="M348,741L326,869L478,812Z" fill="rgb(147,155,204)" stroke="rgb(147,155,204)" stroke-width="1.51"/><path d="M229,570L251,712L346,583Z" fill="rgb(144,139,211)" stroke="rgb(144,139,211)" stroke-width="1.51"/><path d="M123,693L251,712L229,570Z" fill="rgb(145,139,205)" stroke="rgb(145,139,205)" stroke-width="1.51"/><path d="M1929,358L1824,214L1772,349Z" fill="rgb(144,166,222)" stroke="rgb(144,166,222)" stroke-width="1.51"/><path d="M1772,349L1824,214L1651,205Z" fill="rgb(144,159,219)" stroke="rgb(144,159,219)" stroke-width="1.51"/><path d="M139,354L124,460L257,464Z" fill="rgb(138,121,218)" stroke="rgb(138,121,218)" stroke-width="1.51"/><path d="M11,486L124,460L139,354Z" fill="rgb(139,119,214)" stroke="rgb(139,119,214)" stroke-width="1.51"/><path d="M241,-83L105,-86L154,121Z" fill="rgb(140,82,177)" stroke="rgb(140,82,177)" stroke-width="1.51"/><path d="M-45,88L-24,241L125,227Z" fill="rgb(140,94,190)" stroke="rgb(140,94,190)" stroke-width="1.51"/><path d="M408,-228L207,-168L396,-92Z" fill="rgb(140,89,184)" stroke="rgb(140,89,184)" stroke-width="1.51"/><path d="M1399,954L1556,896L1373,814Z" fill="rgb(145,191,217)" stroke="rgb(145,191,217)" stroke-width="1.51"/><path d="M230,811L326,869L348,741Z" fill="rgb(148,152,201)" stroke="rgb(148,152,201)" stroke-width="1.51"/><path d="M230,811L348,741L251,712Z" fill="rgb(147,148,202)" stroke="rgb(147,148,202)" stroke-width="1.51"/><path d="M391,1020L514,1020L478,812Z" fill="rgb(147,158,208)" stroke="rgb(147,158,208)" stroke-width="1.51"/><path d="M1971,105L1791,-64L1757,36Z" fill="rgb(148,141,192)" stroke="rgb(148,141,192)" stroke-width="1.51"/><path d="M1757,36L1791,-64L1672,-104Z" fill="rgb(148,136,192)" stroke="rgb(148,136,192)" stroke-width="1.51"/><path d="M1672,-104L1789,-203L1637,-141Z" fill="rgb(147,135,193)" stroke="rgb(147,135,193)" stroke-width="1.51"/><path d="M1556,896L1703,763L1524,758Z" fill="rgb(146,195,213)" stroke="rgb(146,195,213)" stroke-width="1.51"/><path d="M1673,639L1849,508L1658,469Z" fill="rgb(143,181,227)" stroke="rgb(143,181,227)" stroke-width="1.51"/><path d="M1845,603L1849,508L1673,639Z" fill="rgb(144,186,222)" stroke="rgb(144,186,222)" stroke-width="1.51"/><path d="M326,869L391,1020L478,812Z" fill="rgb(147,156,205)" stroke="rgb(147,156,205)" stroke-width="1.51"/><path d="M123,693L230,811L251,712Z" fill="rgb(147,144,200)" stroke="rgb(147,144,200)" stroke-width="1.51"/><path d="M124,460L98,579L229,570Z" fill="rgb(142,128,210)" stroke="rgb(142,128,210)" stroke-width="1.51"/><path d="M11,486L98,579L124,460Z" fill="rgb(142,123,209)" stroke="rgb(142,123,209)" stroke-width="1.51"/><path d="M120,-146L105,-86L241,-83Z" fill="rgb(140,82,176)" stroke="rgb(140,82,176)" stroke-width="1.51"/><path d="M-52,339L11,486L139,354Z" fill="rgb(138,114,212)" stroke="rgb(138,114,212)" stroke-width="1.51"/><path d="M1059,1021L1534,997L1399,954Z" fill="rgb(144,187,220)" stroke="rgb(144,187,220)" stroke-width="1.51"/><path d="M1399,954L1534,997L1556,896Z" fill="rgb(146,192,216)" stroke="rgb(146,192,216)" stroke-width="1.51"/><path d="M1556,896L1713,890L1703,763Z" fill="rgb(146,197,211)" stroke="rgb(146,197,211)" stroke-width="1.51"/><path d="M207,-168L120,-146L241,-83Z" fill="rgb(140,83,178)" stroke="rgb(140,83,178)" stroke-width="1.51"/><path d="M-20,-189L120,-146L207,-168Z" fill="rgb(140,79,174)" stroke="rgb(140,79,174)" stroke-width="1.51"/><path d="M1896,-150L1789,-203L1791,-64Z" fill="rgb(149,139,190)" stroke="rgb(149,139,190)" stroke-width="1.51"/><path d="M1791,-64L1789,-203L1672,-104Z" fill="rgb(148,136,192)" stroke="rgb(148,136,192)" stroke-width="1.51"/><path d="M1637,-141L1789,-203L1582,-139Z" fill="rgb(147,134,194)" stroke="rgb(147,134,194)" stroke-width="1.51"/><path d="M1433,-174L1789,-203L1311,-179Z" fill="rgb(146,129,198)" stroke="rgb(146,129,198)" stroke-width="1.51"/><path d="M1971,105L1757,36L1824,214Z" fill="rgb(147,150,202)" stroke="rgb(147,150,202)" stroke-width="1.51"/><path d="M1791,730L1673,639L1703,763Z" fill="rgb(146,193,216)" stroke="rgb(146,193,216)" stroke-width="1.51"/><path d="M1791,730L1845,603L1673,639Z" fill="rgb(145,190,218)" stroke="rgb(145,190,218)" stroke-width="1.51"/><path d="M98,579L123,693L229,570Z" fill="rgb(144,134,205)" stroke="rgb(144,134,205)" stroke-width="1.51"/><path d="M1810,897L1791,730L1703,763Z" fill="rgb(147,199,208)" stroke="rgb(147,199,208)" stroke-width="1.51"/><path d="M1960,552L1900,436L1849,508Z" fill="rgb(144,183,224)" stroke="rgb(144,183,224)" stroke-width="1.51"/><path d="M1849,508L1900,436L1772,349Z" fill="rgb(142,176,230)" stroke="rgb(142,176,230)" stroke-width="1.51"/><path d="M257,957L326,869L230,811Z" fill="rgb(148,151,199)" stroke="rgb(148,151,199)" stroke-width="1.51"/><path d="M257,957L391,1020L326,869Z" fill="rgb(148,153,202)" stroke="rgb(148,153,202)" stroke-width="1.51"/><path d="M514,1020L391,1020L679,1030Z" fill="rgb(146,160,211)" stroke="rgb(146,160,211)" stroke-width="1.51"/><path d="M2088,321L1929,358L2110,417Z" fill="rgb(143,174,226)" stroke="rgb(143,174,226)" stroke-width="1.51"/><path d="M1900,436L1929,358L1772,349Z" fill="rgb(142,174,229)" stroke="rgb(142,174,229)" stroke-width="1.51"/><path d="M1669,1030L1713,890L1556,896Z" fill="rgb(146,196,212)" stroke="rgb(146,196,212)" stroke-width="1.51"/><path d="M98,579L30,688L123,693Z" fill="rgb(146,134,200)" stroke="rgb(146,134,200)" stroke-width="1.51"/><path d="M-24,241L139,354L125,227Z" fill="rgb(139,104,202)" stroke="rgb(139,104,202)" stroke-width="1.51"/><path d="M-45,88L125,227L154,121Z" fill="rgb(140,92,188)" stroke="rgb(140,92,188)" stroke-width="1.51"/><path d="M-45,88L154,121L105,-86Z" fill="rgb(140,82,177)" stroke="rgb(140,82,177)" stroke-width="1.51"/><path d="M110,841L257,957L230,811Z" fill="rgb(148,149,196)" stroke="rgb(148,149,196)" stroke-width="1.51"/><path d="M110,841L230,811L123,693Z" fill="rgb(148,145,195)" stroke="rgb(148,145,195)" stroke-width="1.51"/><path d="M1929,358L1974,202L1824,214Z" fill="rgb(146,163,215)" stroke="rgb(146,163,215)" stroke-width="1.51"/><path d="M1928,-97L1896,-150L1791,-64Z" fill="rgb(149,140,189)" stroke="rgb(149,140,189)" stroke-width="1.51"/><path d="M1974,202L1971,105L1824,214Z" fill="rgb(147,157,206)" stroke="rgb(147,157,206)" stroke-width="1.51"/><path d="M-24,241L-52,339L139,354Z" fill="rgb(139,106,204)" stroke="rgb(139,106,204)" stroke-width="1.51"/><path d="M-24,241L-134,179L-52,339Z" fill="rgb(140,99,196)" stroke="rgb(140,99,196)" stroke-width="1.51"/><path d="M-8,-73L-45,88L105,-86Z" fill="rgb(140,76,170)" stroke="rgb(140,76,170)" stroke-width="1.51"/><path d="M1971,105L1928,-97L1791,-64Z" fill="rgb(149,141,188)" stroke="rgb(149,141,188)" stroke-width="1.51"/><path d="M120,-146L-8,-73L105,-86Z" fill="rgb(140,78,173)" stroke="rgb(140,78,173)" stroke-width="1.51"/><path d="M-9,642L98,579L11,486Z" fill="rgb(144,126,203)" stroke="rgb(144,126,203)" stroke-width="1.51"/><path d="M-9,642L30,688L98,579Z" fill="rgb(145,131,199)" stroke="rgb(145,131,199)" stroke-width="1.51"/><path d="M30,688L110,841L123,693Z" fill="rgb(148,140,195)" stroke="rgb(148,140,195)" stroke-width="1.51"/><path d="M1929,358L2088,321L1974,202Z" fill="rgb(145,167,219)" stroke="rgb(145,167,219)" stroke-width="1.51"/><path d="M1845,603L1960,552L1849,508Z" fill="rgb(144,186,221)" stroke="rgb(144,186,221)" stroke-width="1.51"/><path d="M1914,730L1960,552L1845,603Z" fill="rgb(146,192,216)" stroke="rgb(146,192,216)" stroke-width="1.51"/><path d="M1914,730L1845,603L1791,730Z" fill="rgb(146,195,214)" stroke="rgb(146,195,214)" stroke-width="1.51"/><path d="M1713,890L1810,897L1703,763Z" fill="rgb(147,199,209)" stroke="rgb(147,199,209)" stroke-width="1.51"/><path d="M1534,997L1669,1030L1556,896Z" fill="rgb(146,195,213)" stroke="rgb(146,195,213)" stroke-width="1.51"/><path d="M1059,1021L1669,1030L1534,997Z" fill="rgb(145,190,218)" stroke="rgb(145,190,218)" stroke-width="1.51"/><path d="M679,1030L1669,1030L1059,1021Z" fill="rgb(143,182,225)" stroke="rgb(143,182,225)" stroke-width="1.51"/><path d="M-128,631L-9,642L11,486Z" fill="rgb(144,126,201)" stroke="rgb(144,126,201)" stroke-width="1.51"/><path d="M11,999L129,1014L110,841Z" fill="rgb(149,144,191)" stroke="rgb(149,144,191)" stroke-width="1.51"/><path d="M1765,1009L1810,897L1713,890Z" fill="rgb(147,200,209)" stroke="rgb(147,200,209)" stroke-width="1.51"/><path d="M1810,897L1914,730L1791,730Z" fill="rgb(147,201,208)" stroke="rgb(147,201,208)" stroke-width="1.51"/><path d="M1971,105L2016,78L1928,-97Z" fill="rgb(149,144,191)" stroke="rgb(149,144,191)" stroke-width="1.51"/><path d="M2092,173L2016,78L1971,105Z" fill="rgb(148,152,200)" stroke="rgb(148,152,200)" stroke-width="1.51"/><path d="M2092,173L1971,105L1974,202Z" fill="rgb(147,155,204)" stroke="rgb(147,155,204)" stroke-width="1.51"/><path d="M120,-146L-20,-189L-8,-73Z" fill="rgb(140,77,171)" stroke="rgb(140,77,171)" stroke-width="1.51"/><path d="M-168,46L-134,179L-45,88Z" fill="rgb(140,85,181)" stroke="rgb(140,85,181)" stroke-width="1.51"/><path d="M408,-228L-20,-189L207,-168Z" fill="rgb(140,83,178)" stroke="rgb(140,83,178)" stroke-width="1.51"/><path d="M1810,897L1897,900L1914,730Z" fill="rgb(147,203,206)" stroke="rgb(147,203,206)" stroke-width="1.51"/><path d="M1669,1030L1765,1009L1713,890Z" fill="rgb(147,198,210)" stroke="rgb(147,198,210)" stroke-width="1.51"/><path d="M-168,46L-45,88L-8,-73Z" fill="rgb(140,77,172)" stroke="rgb(140,77,172)" stroke-width="1.51"/><path d="M-45,88L-134,179L-24,241Z" fill="rgb(140,91,187)" stroke="rgb(140,91,187)" stroke-width="1.51"/><path d="M-52,339L-134,452L11,486Z" fill="rgb(139,115,210)" stroke="rgb(139,115,210)" stroke-width="1.51"/><path d="M-175,370L-134,452L-52,339Z" fill="rgb(139,112,210)" stroke="rgb(139,112,210)" stroke-width="1.51"/><path d="M-48,842L110,841L30,688Z" fill="rgb(149,142,190)" stroke="rgb(149,142,190)" stroke-width="1.51"/><path d="M2110,417L1929,358L1900,436Z" fill="rgb(142,177,230)" stroke="rgb(142,177,230)" stroke-width="1.51"/><path d="M1914,730L2032,597L1960,552Z" fill="rgb(146,192,216)" stroke="rgb(146,192,216)" stroke-width="1.51"/><path d="M2058,768L2032,597L1914,730Z" fill="rgb(146,197,211)" stroke="rgb(146,197,211)" stroke-width="1.51"/><path d="M2110,417L1900,436L1960,552Z" fill="rgb(143,181,226)" stroke="rgb(143,181,226)" stroke-width="1.51"/><path d="M-48,842L30,688L-135,815Z" fill="rgb(149,140,188)" stroke="rgb(149,140,188)" stroke-width="1.51"/><path d="M110,841L129,1014L257,957Z" fill="rgb(148,147,195)" stroke="rgb(148,147,195)" stroke-width="1.51"/><path d="M257,957L129,1014L391,1020Z" fill="rgb(148,151,199)" stroke="rgb(148,151,199)" stroke-width="1.51"/><path d="M391,1020L129,1014L679,1030Z" fill="rgb(147,156,205)" stroke="rgb(147,156,205)" stroke-width="1.51"/><path d="M2016,78L2063,-64L1928,-97Z" fill="rgb(149,141,188)" stroke="rgb(149,141,188)" stroke-width="1.51"/><path d="M1928,-97L2059,-207L1896,-150Z" fill="rgb(149,141,188)" stroke="rgb(149,141,188)" stroke-width="1.51"/><path d="M2088,321L2092,173L1974,202Z" fill="rgb(146,162,212)" stroke="rgb(146,162,212)" stroke-width="1.51"/><path d="M1765,1009L1897,900L1810,897Z" fill="rgb(147,202,207)" stroke="rgb(147,202,207)" stroke-width="1.51"/><path d="M2092,173L2063,-64L2016,78Z" fill="rgb(149,147,194)" stroke="rgb(149,147,194)" stroke-width="1.51"/><path d="M-134,452L-128,631L11,486Z" fill="rgb(143,122,204)" stroke="rgb(143,122,204)" stroke-width="1.51"/><path d="M-134,179L-175,370L-52,339Z" fill="rgb(140,103,201)" stroke="rgb(140,103,201)" stroke-width="1.51"/><path d="M-134,179L-168,46L-175,370Z" fill="rgb(140,94,190)" stroke="rgb(140,94,190)" stroke-width="1.51"/><path d="M-194,-11L-168,46L-8,-73Z" fill="rgb(140,75,170)" stroke="rgb(140,75,170)" stroke-width="1.51"/><path d="M-191,679L-128,631L-134,452Z" fill="rgb(144,126,201)" stroke="rgb(144,126,201)" stroke-width="1.51"/><path d="M2088,321L2110,417L2092,173Z" fill="rgb(144,168,220)" stroke="rgb(144,168,220)" stroke-width="1.51"/><path d="M2032,597L2110,417L1960,552Z" fill="rgb(144,185,222)" stroke="rgb(144,185,222)" stroke-width="1.51"/><path d="M-135,815L30,688L-9,642Z" fill="rgb(148,135,193)" stroke="rgb(148,135,193)" stroke-width="1.51"/><path d="M-20,-189L-128,-172L-8,-73Z" fill="rgb(140,75,170)" stroke="rgb(140,75,170)" stroke-width="1.51"/><path d="M-128,-172L-194,-11L-8,-73Z" fill="rgb(140,75,170)" stroke="rgb(140,75,170)" stroke-width="1.51"/><path d="M-168,46L-194,-11L-175,370Z" fill="rgb(140,88,184)" stroke="rgb(140,88,184)" stroke-width="1.51"/><path d="M1896,-150L2059,-207L1789,-203Z" fill="rgb(149,141,188)" stroke="rgb(149,141,188)" stroke-width="1.51"/><path d="M1789,-203L2059,-207L774,-234Z" fill="rgb(146,130,197)" stroke="rgb(146,130,197)" stroke-width="1.51"/><path d="M2063,-64L2059,-207L1928,-97Z" fill="rgb(149,141,188)" stroke="rgb(149,141,188)" stroke-width="1.51"/><path d="M2092,173L2059,-207L2063,-64Z" fill="rgb(149,141,188)" stroke="rgb(149,141,188)" stroke-width="1.51"/><path d="M2062,836L1914,730L1897,900Z" fill="rgb(147,204,204)" stroke="rgb(147,204,204)" stroke-width="1.51"/><path d="M2062,836L2058,768L1914,730Z" fill="rgb(147,203,206)" stroke="rgb(147,203,206)" stroke-width="1.51"/><path d="M2032,597L2058,768L2110,417Z" fill="rgb(145,190,218)" stroke="rgb(145,190,218)" stroke-width="1.51"/><path d="M-48,842L11,999L110,841Z" fill="rgb(149,142,189)" stroke="rgb(149,142,189)" stroke-width="1.51"/><path d="M-166,994L11,999L-48,842Z" fill="rgb(149,141,188)" stroke="rgb(149,141,188)" stroke-width="1.51"/><path d="M-128,631L-135,815L-9,642Z" fill="rgb(147,134,194)" stroke="rgb(147,134,194)" stroke-width="1.51"/><path d="M-175,370L-191,679L-134,452Z" fill="rgb(142,120,206)" stroke="rgb(142,120,206)" stroke-width="1.51"/><path d="M-194,-11L-191,679L-175,370Z" fill="rgb(139,108,206)" stroke="rgb(139,108,206)" stroke-width="1.51"/><path d="M-191,679L-135,815L-128,631Z" fill="rgb(147,135,193)" stroke="rgb(147,135,193)" stroke-width="1.51"/><path d="M1981,1018L2062,836L1897,900Z" fill="rgb(147,204,204)" stroke="rgb(147,204,204)" stroke-width="1.51"/><path d="M2058,768L2108,953L2110,417Z" fill="rgb(147,198,210)" stroke="rgb(147,198,210)" stroke-width="1.51"/><path d="M1765,1009L1981,1018L1897,900Z" fill="rgb(147,203,205)" stroke="rgb(147,203,205)" stroke-width="1.51"/><path d="M1669,1030L1981,1018L1765,1009Z" fill="rgb(147,200,207)" stroke="rgb(147,200,207)" stroke-width="1.51"/><path d="M1981,1018L2108,953L2062,836Z" fill="rgb(147,204,204)" stroke="rgb(147,204,204)" stroke-width="1.51"/><path d="M2062,836L2108,953L2058,768Z" fill="rgb(147,204,204)" stroke="rgb(147,204,204)" stroke-width="1.51"/><path d="M-135,815L-166,994L-48,842Z" fill="rgb(149,141,188)" stroke="rgb(149,141,188)" stroke-width="1.51"/><path d="M11,999L-166,994L129,1014Z" fill="rgb(149,141,188)" stroke="rgb(149,141,188)" stroke-width="1.51"/><path d="M-191,679L-166,994L-135,815Z" fill="rgb(149,141,188)" stroke="rgb(149,141,188)" stroke-width="1.51"/></svg>